<svg display="none" version="1.1" xmlns="http://www.w3.org/2000/svg" xmlns:xlink="http://www.w3.org/1999/xlink">
<defs>
<symbol id="icon-deadline" viewBox="0 0 1063 1024">
  <title>deadline</title>
  <path class="path1" d="M681.548 431.423c-1.679-10.072-5.036-20.144-11.751-28.538l41.967-263.554c1.679-10.072-5.036-18.466-15.108-21.823v0c-10.072-1.679-20.144 3.357-21.823 13.43l-77.22 255.161c-18.466 10.072-31.895 28.538-31.895 52.039 0 31.895 26.859 58.754 58.754 58.754 6.715 0 11.751-1.679 16.787-3.357l162.833 83.934c8.393 5.036 20.144 1.679 25.18-6.715v0c5.036-8.393 3.357-20.144-5.036-25.18l-142.689-114.151zM594.256 439.816c0-15.108 13.43-28.538 28.538-28.538s28.538 13.43 28.538 28.538c0 15.108-13.43 28.538-28.538 28.538s-28.538-13.43-28.538-28.538zM1062.61 439.816c0 194.728-129.259 360.918-305.521 417.993v-62.111c144.367-53.718 246.767-193.049 246.767-355.882 0-209.836-171.226-379.384-381.062-379.384s-381.062 171.226-381.062 379.384c0 21.823 1.679 41.967 5.036 62.111h-60.433c-3.357-20.144-5.036-40.289-5.036-62.111 1.679-243.41 199.764-439.816 441.495-439.816 243.41 0 439.816 196.407 439.816 439.816zM700.013 752.052l-135.974-134.295c-8.393-8.393-20.144-13.43-31.895-13.43h-68.826v-25.18c0-18.466-15.108-33.574-35.252-33.574h-392.813c-18.466 0-35.252 15.108-35.252 33.574v229.98h713.443v-25.18c0-11.751-5.036-23.502-13.43-31.895zM641.259 755.41h-130.938c-3.357 0-5.036-1.679-5.036-5.036v-100.721c0-3.357 1.679-5.036 5.036-5.036h25.18c1.679 0 3.357 0 3.357 1.679l105.757 100.721c3.357 3.357 1.679 8.393-3.357 8.393zM713.443 829.272v75.541c0 18.466-15.108 33.574-35.252 33.574h-36.931c-6.715-45.325-45.325-80.577-94.007-80.577-47.003 0-87.292 35.252-94.007 80.577h-184.656c-6.715-45.325-45.325-80.577-94.007-80.577s-87.292 35.252-94.007 80.577h-45.325c-18.466 0-35.252-15.108-35.252-33.574v-75.541h713.443zM548.931 881.311c-40.289 0-72.184 31.895-72.184 70.505s31.895 72.184 72.184 72.184 72.184-31.895 72.184-72.184c-1.679-38.61-33.574-70.505-72.184-70.505zM548.931 988.748c-20.144 0-35.252-15.108-35.252-35.252s16.787-35.252 35.252-35.252c20.144 0 35.252 16.787 35.252 35.252s-15.108 35.252-35.252 35.252zM174.584 881.311c-40.289 0-72.184 31.895-72.184 70.505s31.895 72.184 72.184 72.184 72.184-31.895 72.184-72.184c-1.679-38.61-33.574-70.505-72.184-70.505zM174.584 988.748c-20.144 0-35.252-15.108-35.252-35.252s16.787-35.252 35.252-35.252c20.144 0 35.252 16.787 35.252 35.252s-15.108 35.252-35.252 35.252z"></path>
</symbol>
<symbol id="icon-hand" viewBox="0 0 1007 1024">
  <title>hand</title>
  <path class="path1" d="M956.852 780.59c-30.216 21.823-323.987 196.407-365.954 219.908-48.682 28.538-60.433 31.895-134.295 8.393-48.682-15.108-117.508-38.61-167.869-62.111-45.325-21.823-77.22-21.823-110.793 0l-57.075 35.252-120.866-270.269c0 0 99.043-47.003 159.475-70.505 97.364-36.931 125.902-20.144 179.62 15.108 23.502 15.108 97.364 68.826 97.364 68.826s47.003 43.646 142.689 43.646c58.754 0 95.685 6.715 95.685 41.967 0 40.289-73.862 41.967-73.862 41.967h-137.652c-62.111 0-147.725-35.252-147.725-35.252s72.184 78.898 147.725 78.898h139.331c40.289 0 115.83-20.144 115.83-85.613 0-85.613-77.22-85.613-174.584-85.613-8.393 0-15.108-1.679-21.823-3.357 3.357-1.679 6.715-3.357 11.751-6.715 16.787-10.072 40.289-23.502 67.148-40.289 68.826-43.646 105.757-48.682 139.331-3.357 23.502-25.18 55.397-31.895 80.577-31.895 30.216 0 53.718 20.144 47.003 50.361 75.541-45.325 112.472-26.859 129.259-5.036 21.823 30.216 6.715 60.433-40.289 95.685zM335.738 362.597c0-105.757 85.613-191.37 191.37-191.37s191.37 85.613 191.37 191.37-85.613 191.37-191.37 191.37c-105.757 1.679-191.37-85.613-191.37-191.37zM453.246 334.059h45.325v115.83h57.075v-174.584h-45.325l-57.075 58.754zM673.154 127.58h-35.252l45.325-45.325h35.252v135.974h-10.072c16.787 21.823 30.216 45.325 38.61 72.184 57.075-21.823 97.364-75.541 97.364-139.331 0-82.256-67.148-149.403-147.725-149.403-75.541 0-135.974 57.075-146.046 129.259 47.003 5.036 88.97 23.502 124.223 52.039l-1.679-55.397z"></path>
</symbol>
<symbol id="icon-services" viewBox="0 0 834 1024">
  <title>services</title>
  <path class="path1" d="M424.708 73.862h-21.823c-11.751 0-21.823-10.072-21.823-21.823v0c0-28.538-21.823-50.361-50.361-50.361h-1.679c-28.538 0-50.361 23.502-50.361 50.361v0c0 11.751-10.072 21.823-21.823 21.823h-21.823c-23.502 0-43.646 20.144-43.646 43.646v0c0 23.502 20.144 43.646 43.646 43.646h191.37c23.502 0 43.646-20.144 43.646-43.646v-1.679c-1.679-23.502-21.823-41.967-45.325-41.967zM329.023 73.862c-11.751 0-21.823-10.072-21.823-21.823s10.072-21.823 21.823-21.823c11.751 0 21.823 10.072 21.823 21.823s-10.072 21.823-21.823 21.823zM426.387 921.6h-367.633c-31.895 0-58.754-26.859-58.754-58.754v-701.692c0-31.895 26.859-58.754 43.646-58.754h119.187c-1.679 5.036-1.679 10.072-1.679 15.108 0 40.289 31.895 72.184 72.184 72.184h191.37c40.289 0 72.184-31.895 72.184-73.862 0-5.036 0-10.072-1.679-13.43h88.97c47.003 0 73.862 26.859 73.862 58.754v439.816c-5.036 0-10.072 0-15.108 0-20.144 0-40.289 3.357-58.754 8.393v-345.81h-510.321v585.862h337.416c0 25.18 6.715 50.361 15.108 72.184zM642.938 644.616c-105.757 0-189.692 85.613-189.692 189.692s85.613 189.692 189.692 189.692c105.757 0 189.692-85.613 189.692-189.692 1.679-105.757-83.934-189.692-189.692-189.692zM767.161 795.698l-117.508 130.938c-5.036 6.715-13.43 10.072-21.823 10.072-6.715 0-13.43-1.679-18.466-6.715l-72.184-58.754c-13.43-10.072-15.108-28.538-5.036-41.967s28.538-15.108 40.289-5.036l52.039 41.967 99.043-110.793c10.072-11.751 28.538-13.43 41.967-1.679 11.751 10.072 13.43 28.538 1.679 41.967zM512 512h-233.338c-8.393 0-15.108-6.715-15.108-15.108v-15.108c0-8.393 6.715-15.108 15.108-15.108h233.338c8.393 0 15.108 6.715 15.108 15.108v15.108c0 8.393-6.715 15.108-15.108 15.108zM512 381.062h-233.338c-8.393 0-15.108-6.715-15.108-15.108v-15.108c0-8.393 6.715-15.108 15.108-15.108h233.338c8.393 0 15.108 6.715 15.108 15.108v15.108c0 8.393-6.715 15.108-15.108 15.108zM438.138 629.508h-161.154c-8.393 0-15.108-6.715-15.108-15.108v-15.108c0-8.393 6.715-15.108 15.108-15.108h161.154c8.393 0 15.108 6.715 15.108 15.108v15.108c0 8.393-6.715 15.108-15.108 15.108zM409.6 760.446h-130.938c-8.393 0-15.108-6.715-15.108-15.108v-15.108c0-8.393 6.715-15.108 15.108-15.108h130.938c8.393 0 15.108 6.715 15.108 15.108v15.108c0 8.393-6.715 15.108-15.108 15.108zM235.016 325.666l-53.718 60.433c-3.357 3.357-6.715 5.036-10.072 5.036s-6.715-1.679-8.393-3.357l-33.574-26.859c-5.036-5.036-6.715-13.43-1.679-18.466s13.43-6.715 18.466-1.679l23.502 18.466 45.325-50.361c5.036-5.036 13.43-6.715 18.466-1.679 6.715 5.036 6.715 13.43 1.679 18.466zM235.016 456.603l-53.718 60.433c-3.357 3.357-6.715 5.036-10.072 5.036s-6.715-1.679-8.393-3.357l-33.574-26.859c-5.036-5.036-6.715-13.43-1.679-18.466s13.43-6.715 18.466-1.679l23.502 18.466 45.325-50.361c5.036-5.036 13.43-6.715 18.466-1.679 6.715 5.036 6.715 13.43 1.679 18.466zM235.016 580.826l-53.718 60.433c-3.357 3.357-6.715 5.036-10.072 5.036s-6.715-1.679-8.393-3.357l-33.574-26.859c-5.036-5.036-6.715-13.43-1.679-18.466s13.43-6.715 18.466-1.679l23.502 18.466 45.325-50.361c5.036-5.036 13.43-6.715 18.466-1.679 6.715 5.036 6.715 13.43 1.679 18.466zM235.016 706.728l-53.718 60.433c-3.357 3.357-6.715 5.036-10.072 5.036s-6.715-1.679-8.393-3.357l-33.574-26.859c-5.036-5.036-6.715-13.43-1.679-18.466s13.43-6.715 18.466-1.679l23.502 18.466 45.325-50.361c5.036-5.036 13.43-6.715 18.466-1.679 6.715 3.357 6.715 11.751 1.679 18.466z"></path>
</symbol>
<symbol id="icon-email" viewBox="0 0 1434 1024">
  <title>email</title>
  <path class="path1" d="M542.72 563.2l-512 430.080c20.48 20.48 40.96 30.72 71.68 30.72h1228.8c30.72 0 51.2-10.24 71.68-30.72l-512-430.080-174.080 153.6-174.080-153.6z"></path>
  <path class="path2" d="M1331.2 0h-1228.8c-30.72 0-51.2 10.24-71.68 30.72l686.080 583.68 686.080-583.68c-20.48-20.48-40.96-30.72-71.68-30.72z"></path>
  <path class="path3" d="M0 942.080l491.52-419.84-491.52-430.080v849.92z"></path>
  <path class="path4" d="M1433.6 942.080v-849.92l-491.52 430.080 491.52 419.84z"></path>
</symbol>
<symbol id="icon-tag" viewBox="0 0 755 1024">
  <title>tag</title>
  <path class="path1" d="M377.263 0c-210.189 0-377.263 172.463-377.263 377.263 0 312.589 377.263 646.737 377.263 646.737s377.263-317.979 377.263-646.737c0-204.8-167.074-377.263-377.263-377.263zM377.263 609.011c-129.347 0-231.747-107.789-231.747-237.137s102.4-237.137 231.747-237.137c129.347 0 231.747 102.4 231.747 237.137s-102.4 237.137-231.747 237.137z"></path>
</symbol>
<symbol id="icon-phone" viewBox="0 0 1024 1024">
  <title>phone</title>
  <path class="path1" d="M393.846 634.092c90.585 90.585 196.923 177.231 240.246 137.846 59.077-59.077 98.462-114.215 228.431-7.877 133.908 106.338 31.508 177.231-27.569 236.308-66.954 66.954-315.077 3.938-563.2-240.246-248.123-248.123-315.077-500.185-248.123-567.138 59.077-59.077 129.969-161.477 236.308-27.569 106.338 129.969 55.138 169.354-3.938 228.431-43.323 43.323 43.323 149.662 137.846 240.246zM527.754 196.923c0 0-27.569-3.938-47.262 15.754s-19.692 55.138 0 74.831c11.815 11.815 31.508 15.754 31.508 15.754 35.446 7.877 86.646 15.754 141.785 70.892s66.954 106.338 70.892 141.785c0 0 3.938 15.754 15.754 31.508 19.692 19.692 55.138 19.692 74.831 0s15.754-47.262 15.754-47.262c-11.815-70.892-43.323-141.785-102.4-200.862-63.015-59.077-133.908-90.585-200.862-102.4zM787.692 240.246c102.4 102.4 141.785 216.615 129.969 307.2 0 0-3.938 27.569 15.754 47.262s55.138 19.692 74.831 0c11.815-11.815 15.754-35.446 15.754-35.446 11.815-78.769-3.938-240.246-161.477-397.785s-319.015-173.292-397.785-161.477c0 0-19.692 3.938-35.446 15.754-19.692 19.692-19.692 55.138 0 74.831s47.262 15.754 47.262 15.754c94.523-11.815 208.738 31.508 311.138 133.908z"></path>
</symbol>
<symbol id="icon-businessman" viewBox="0 0 802 1024">
  <title>businessman</title>
  <path class="path1" d="M215.040 315.733c3.413 15.36 8.533 25.6 15.36 32.427 15.36 97.28 95.573 186.027 168.96 186.027 85.333 0 163.84-97.28 179.2-186.027 6.827-6.827 11.947-17.067 15.36-32.427 5.12-18.773 11.947-49.493 0-64.853 0 0-1.707-1.707-1.707-1.707 10.24-37.547 23.893-116.053-23.893-168.96-3.413-5.12-30.72-37.547-87.040-52.907l-27.307-10.24c-44.373-13.653-71.68-17.067-73.387-17.067s-3.413 0-6.827 0c-1.707 0-6.827 1.707-10.24 1.707-10.24-1.707-27.307 3.413-29.013 5.12-3.413 1.707-88.747 35.84-116.053 116.053-1.707 6.827-11.947 40.96 1.707 124.587-1.707 1.707-3.413 3.413-5.12 5.12-11.947 13.653-5.12 44.373 0 63.147zM249.173 134.827c0-1.707 0-1.707 0 0 22.187-66.56 97.28-97.28 97.28-97.28 3.413-1.707 10.24-3.413 13.653-3.413 6.827 1.707 15.36 0 20.48-1.707 6.827 1.707 30.72 5.12 64.853 15.36l27.307 8.533c49.493 15.36 71.68 42.667 71.68 42.667s0 0 1.707 1.707c42.667 49.493 20.48 129.707 13.653 153.6-1.707 5.12 0 11.947 3.413 15.36 1.707 1.707 5.12 3.413 6.827 5.12 0 8.533-1.707 22.187-5.12 34.133 0 0 0 1.707 0 1.707-1.707 8.533-3.413 15.36-8.533 17.067-3.413 1.707-5.12 6.827-6.827 10.24-10.24 75.093-80.213 163.84-150.187 163.84-58.027 0-128-83.627-138.24-163.84 0-3.413-3.413-8.533-6.827-10.24-3.413-3.413-6.827-10.24-8.533-18.773 0 0 0-1.707 0-1.707-3.413-11.947-5.12-23.893-5.12-32.427 3.413 0 5.12-1.707 8.533-3.413 5.12-3.413 6.827-10.24 5.12-15.36-17.067-88.747-5.12-121.173-5.12-121.173z"></path>
  <path class="path2" d="M733.867 604.16c0 0-17.067-23.893-59.733-39.253 0 0-3.413-1.707-8.533-3.413-37.547-17.067-71.68-29.013-71.68-29.013-6.827-3.413-13.653-5.12-20.48-8.533-25.6-11.947-46.080-25.6-51.2-39.253l18.773 150.187-136.533 349.867-128-343.040 3.413-158.72c-11.947 35.84-151.893 78.507-151.893 78.507-40.96 18.773-59.733 42.667-59.733 42.667-61.44 90.453-68.267 293.547-68.267 293.547 0 46.080 20.48 51.2 20.48 51.2 141.653 63.147 363.52 75.093 363.52 75.093 11.947 0 23.893 0 34.133-1.707v1.707c0 0 221.867-11.947 363.52-73.387 0 0 20.48-5.12 20.48-51.2 0-1.707-6.827-203.093-68.267-295.253z"></path>
  <path class="path3" d="M518.827 491.52c1.707-1.707 3.413-3.413 5.12-6.827 0-1.707 0-1.707 0-1.707-3.413 3.413-3.413 6.827-5.12 8.533z"></path>
  <path class="path4" d="M279.893 486.4v0 0c0 0 0-1.707 0 0 0-1.707 0-1.707 0 0z"></path>
  <path class="path5" d="M346.453 549.547l59.733 92.16 59.733-92.16c-64.853 29.013-119.467 0-119.467 0z"></path>
  <path class="path6" d="M406.187 954.027l46.080-281.6-46.080-30.72-46.080 30.72 46.080 281.6z"></path>
</symbol>
<symbol id="icon-logo" viewBox="0 0 899 1024">
  <title>logo</title>
  <path class="path1" d="M800.852 782.257c-1.24 3.719-2.479 8.678-3.719 12.397 0 2.479-1.24 3.719-2.479 4.959s-1.24 3.719-2.479 4.959-2.479 6.199-4.959 8.678c-1.24 2.479-2.479 4.959-3.719 6.199-2.479 3.719-3.719 6.199-3.719 6.199s2.479-1.24 4.959-4.959c1.24-1.24 3.719-3.719 6.199-4.959 2.479-2.479 4.959-4.959 7.438-7.438 2.479-3.719 4.959-6.199 7.438-9.918s4.959-7.438 6.199-12.397c1.24-2.479 1.24-4.959 2.479-7.438s1.24-4.959 2.479-7.438 1.24-9.918 1.24-16.116c0-2.479 0-4.959 0-7.438s-1.24-4.959-1.24-7.438c0-2.479-1.24-4.959-2.479-7.438s-1.24-4.959-2.479-7.438c-2.479-4.959-3.719-8.678-6.199-12.397s-4.959-7.438-7.438-9.918c-2.479-3.719-4.959-6.199-6.199-7.438-2.479-2.479-3.719-3.719-6.199-4.959-3.719-2.479-4.959-3.719-4.959-3.719s1.24 2.479 3.719 6.199c2.479 3.719 4.959 8.678 8.678 16.116 1.24 3.719 3.719 7.438 4.959 11.157s2.479 7.438 3.719 12.397c1.24 3.719 2.479 8.678 2.479 13.637 0 2.479 0 4.959 1.24 6.199 0 2.479 0 4.959 0 7.438 0 4.959 0 8.678-1.24 13.637-1.24 0-2.479 4.959-3.719 8.678z"></path>
  <path class="path2" d="M554.15 738.867c-1.24 6.199-3.719 12.397-6.199 17.356-1.24 2.479-2.479 4.959-3.719 7.438s-2.479 4.959-3.719 7.438-3.719 9.918-6.199 13.637c-2.479 3.719-3.719 7.438-6.199 9.918-3.719 6.199-4.959 8.678-4.959 8.678s2.479-2.479 7.438-6.199c2.479-2.479 4.959-4.959 8.678-7.438s6.199-7.438 9.918-11.157c3.719-4.959 7.438-8.678 11.157-14.877 2.479-6.199 6.199-12.397 8.678-18.596 1.24-3.719 2.479-7.438 3.719-11.157s2.479-7.438 2.479-11.157 2.479-14.877 2.479-23.554c0-3.719 0-7.438 0-11.157-1.24-3.719-1.24-7.438-2.479-11.157 0-3.719-1.24-7.438-2.479-11.157s-2.479-7.438-3.719-9.918-6.199-13.637-8.678-18.596c-2.479-6.199-6.199-11.157-9.918-14.877-3.719-4.959-7.438-8.678-9.918-12.397-3.719-3.719-6.199-6.199-8.678-8.678-4.959-3.719-8.678-6.199-8.678-6.199s2.479 3.719 4.959 8.678c3.719 4.959 7.438 13.637 12.397 23.554 2.479 4.959 4.959 9.918 6.199 16.116 2.479 4.959 3.719 12.397 6.199 17.356 1.24 6.199 3.719 12.397 3.719 19.835 0 3.719 1.24 6.199 1.24 9.918s0 6.199 0 9.918c1.24 6.199-1.24 13.637-1.24 19.835 1.24 6.199-1.24 12.397-2.479 18.596z"></path>
  <path class="path3" d="M345.879 719.031l-339.68 12.397v42.15l350.838-4.959z"></path>
  <path class="path4" d="M296.291 384.31c74.383-37.191 205.792 22.315 205.792 22.315v-91.738c0 0-260.339-100.416-309.927-106.615-17.356-2.479-75.622 8.678-147.525 24.794-14.877 3.719 3.719-43.39-11.157-39.671-7.438 1.24-16.116 3.719-24.794 6.199v296.291c94.218-11.157 174.799-19.835 189.676-19.835 34.712-4.959 23.554-54.547 97.937-91.738z"></path>
  <path class="path5" d="M580.184 507.041c-106.615-52.068-142.567 17.356-177.278 91.738s8.678 209.511 8.678 209.511l-344.639 2.479c-7.438 18.596-26.034 37.191-38.431 47.109h256.62c-11.157-9.918-17.356-22.315-17.356-22.315l192.155-9.918c-17.356-29.753-27.274-71.903-27.274-119.012 0-90.499 38.431-162.402 86.78-162.402s86.78 73.143 86.78 162.402c0 69.424-23.554 128.93-55.787 152.484h84.3c-14.877-7.438-28.513-27.274-28.513-27.274h131.409c-11.157-19.835-19.835-38.431-19.835-70.663 0-60.746 26.034-110.334 59.506-110.334 32.232 0 59.506 49.588 59.506 110.334 0 52.068-18.596 88.019-44.63 97.937h107.855v-53.308h-17.356c0 0-23.554-148.765-34.712-159.923s-111.574-34.712-122.731-28.513c-11.157 6.199-23.554 188.436-23.554 188.436h-94.218c0 0 63.225-117.772 0-249.182 0 0 22.315-6.199 30.993-23.554s8.678-406.625-8.678-417.782c-17.356-11.157-76.862 8.678-76.862 8.678l-47.109-45.869c0 0 154.964-54.547 180.998-37.191 9.918 7.438 104.136 96.697 213.23 204.552v-245.462h-515.719c90.499 69.424 195.874 167.361 195.874 167.361v339.68z"></path>
  <path class="path6" d="M898.789 595.061v-50.828l-200.833-88.019-6.199 63.225z"></path>
  <path class="path7" d="M189.676 644.649c0 28.072-22.757 50.828-50.828 50.828s-50.828-22.757-50.828-50.828c0-28.072 22.757-50.828 50.828-50.828s50.828 22.757 50.828 50.828z"></path>
  <path class="path8" d="M792.174 940.939c75.622-16.116 78.102-24.794 79.341-29.753 0-2.479 0-4.959-1.24-7.438s-3.719-3.719-6.199-3.719h-855.4c-2.479 0-4.959 1.24-7.438 3.719-1.24 2.479-1.24 4.959 0 7.438 2.479 4.959 6.199 6.199 28.513 6.199 54.547 0 114.053 1.24 177.278 2.479v0c0 0 1.24 0 1.24 0 43.39 1.24 395.467 11.157 671.923 100.416 1.24 0 1.24 0 2.479 0s3.719 0 4.959-1.24c2.479-1.24 3.719-3.719 3.719-6.199 0-29.753-48.349-54.547-99.177-71.903z"></path>
</symbol>
</defs>
</svg>