<svg display="none" version="1.1" xmlns="http://www.w3.org/2000/svg" xmlns:xlink="http://www.w3.org/1999/xlink">
<defs>
<symbol id="icon-logo" viewBox="0 0 899 1024">
  <title>logo</title>
  <path class="path1" d="M800.852 782.257c-1.24 3.719-2.479 8.678-3.719 12.397 0 2.479-1.24 3.719-2.479 4.959s-1.24 3.719-2.479 4.959-2.479 6.199-4.959 8.678c-1.24 2.479-2.479 4.959-3.719 6.199-2.479 3.719-3.719 6.199-3.719 6.199s2.479-1.24 4.959-4.959c1.24-1.24 3.719-3.719 6.199-4.959 2.479-2.479 4.959-4.959 7.438-7.438 2.479-3.719 4.959-6.199 7.438-9.918s4.959-7.438 6.199-12.397c1.24-2.479 1.24-4.959 2.479-7.438s1.24-4.959 2.479-7.438 1.24-9.918 1.24-16.116c0-2.479 0-4.959 0-7.438s-1.24-4.959-1.24-7.438c0-2.479-1.24-4.959-2.479-7.438s-1.24-4.959-2.479-7.438c-2.479-4.959-3.719-8.678-6.199-12.397s-4.959-7.438-7.438-9.918c-2.479-3.719-4.959-6.199-6.199-7.438-2.479-2.479-3.719-3.719-6.199-4.959-3.719-2.479-4.959-3.719-4.959-3.719s1.24 2.479 3.719 6.199c2.479 3.719 4.959 8.678 8.678 16.116 1.24 3.719 3.719 7.438 4.959 11.157s2.479 7.438 3.719 12.397c1.24 3.719 2.479 8.678 2.479 13.637 0 2.479 0 4.959 1.24 6.199 0 2.479 0 4.959 0 7.438 0 4.959 0 8.678-1.24 13.637-1.24 0-2.479 4.959-3.719 8.678z"></path>
  <path class="path2" d="M554.15 738.867c-1.24 6.199-3.719 12.397-6.199 17.356-1.24 2.479-2.479 4.959-3.719 7.438s-2.479 4.959-3.719 7.438-3.719 9.918-6.199 13.637c-2.479 3.719-3.719 7.438-6.199 9.918-3.719 6.199-4.959 8.678-4.959 8.678s2.479-2.479 7.438-6.199c2.479-2.479 4.959-4.959 8.678-7.438s6.199-7.438 9.918-11.157c3.719-4.959 7.438-8.678 11.157-14.877 2.479-6.199 6.199-12.397 8.678-18.596 1.24-3.719 2.479-7.438 3.719-11.157s2.479-7.438 2.479-11.157 2.479-14.877 2.479-23.554c0-3.719 0-7.438 0-11.157-1.24-3.719-1.24-7.438-2.479-11.157 0-3.719-1.24-7.438-2.479-11.157s-2.479-7.438-3.719-9.918-6.199-13.637-8.678-18.596c-2.479-6.199-6.199-11.157-9.918-14.877-3.719-4.959-7.438-8.678-9.918-12.397-3.719-3.719-6.199-6.199-8.678-8.678-4.959-3.719-8.678-6.199-8.678-6.199s2.479 3.719 4.959 8.678c3.719 4.959 7.438 13.637 12.397 23.554 2.479 4.959 4.959 9.918 6.199 16.116 2.479 4.959 3.719 12.397 6.199 17.356 1.24 6.199 3.719 12.397 3.719 19.835 0 3.719 1.24 6.199 1.24 9.918s0 6.199 0 9.918c1.24 6.199-1.24 13.637-1.24 19.835 1.24 6.199-1.24 12.397-2.479 18.596z"></path>
  <path class="path3" d="M345.879 719.031l-339.68 12.397v42.15l350.838-4.959z"></path>
  <path class="path4" d="M296.291 384.31c74.383-37.191 205.792 22.315 205.792 22.315v-91.738c0 0-260.339-100.416-309.927-106.615-17.356-2.479-75.622 8.678-147.525 24.794-14.877 3.719 3.719-43.39-11.157-39.671-7.438 1.24-16.116 3.719-24.794 6.199v296.291c94.218-11.157 174.799-19.835 189.676-19.835 34.712-4.959 23.554-54.547 97.937-91.738z"></path>
  <path class="path5" d="M580.184 507.041c-106.615-52.068-142.567 17.356-177.278 91.738s8.678 209.511 8.678 209.511l-344.639 2.479c-7.438 18.596-26.034 37.191-38.431 47.109h256.62c-11.157-9.918-17.356-22.315-17.356-22.315l192.155-9.918c-17.356-29.753-27.274-71.903-27.274-119.012 0-90.499 38.431-162.402 86.78-162.402s86.78 73.143 86.78 162.402c0 69.424-23.554 128.93-55.787 152.484h84.3c-14.877-7.438-28.513-27.274-28.513-27.274h131.409c-11.157-19.835-19.835-38.431-19.835-70.663 0-60.746 26.034-110.334 59.506-110.334 32.232 0 59.506 49.588 59.506 110.334 0 52.068-18.596 88.019-44.63 97.937h107.855v-53.308h-17.356c0 0-23.554-148.765-34.712-159.923s-111.574-34.712-122.731-28.513c-11.157 6.199-23.554 188.436-23.554 188.436h-94.218c0 0 63.225-117.772 0-249.182 0 0 22.315-6.199 30.993-23.554s8.678-406.625-8.678-417.782c-17.356-11.157-76.862 8.678-76.862 8.678l-47.109-45.869c0 0 154.964-54.547 180.998-37.191 9.918 7.438 104.136 96.697 213.23 204.552v-245.462h-515.719c90.499 69.424 195.874 167.361 195.874 167.361v339.68z"></path>
  <path class="path6" d="M898.789 595.061v-50.828l-200.833-88.019-6.199 63.225z"></path>
  <path class="path7" d="M189.676 644.649c0 28.072-22.757 50.828-50.828 50.828s-50.828-22.757-50.828-50.828c0-28.072 22.757-50.828 50.828-50.828s50.828 22.757 50.828 50.828z"></path>
  <path class="path8" d="M792.174 940.939c75.622-16.116 78.102-24.794 79.341-29.753 0-2.479 0-4.959-1.24-7.438s-3.719-3.719-6.199-3.719h-855.4c-2.479 0-4.959 1.24-7.438 3.719-1.24 2.479-1.24 4.959 0 7.438 2.479 4.959 6.199 6.199 28.513 6.199 54.547 0 114.053 1.24 177.278 2.479v0c0 0 1.24 0 1.24 0 43.39 1.24 395.467 11.157 671.923 100.416 1.24 0 1.24 0 2.479 0s3.719 0 4.959-1.24c2.479-1.24 3.719-3.719 3.719-6.199 0-29.753-48.349-54.547-99.177-71.903z"></path>
</symbol>
</defs>
</svg>